<svg xmlns="http://www.w3.org/2000/svg" viewBox="0 0 60 22.928"><defs><clipPath id="a" clipPathUnits="userSpaceOnUse"><path d="M0 2979.552h1920V0H0z"/></clipPath><clipPath id="b" clipPathUnits="userSpaceOnUse"><path d="M466.74 2793.91l6.509-18.885a3.063 3.063 0 00-.188-2.378c-.197-.377-.611-.592-1.038-.592h-3.464c-.438 0-.841.239-1.054.621a2.947 2.947 0 00-.217.485l-.008.021-.858 2.575-2.098 6.296a6.081 6.081 0 01-5.759 4.124h-3.218l4.332-12.997c.144-.432.381-.811.681-1.127h-5.862a1.21 1.21 0 00-1.054.621 2.947 2.947 0 00-.217.485c-.002.01-.005.013-.009.021l-.857 2.575-4.625 14.027a6.083 6.083 0 01-5.759 4.124h-3.219l6.859-20.728c.144-.432.383-.811.683-1.127h-5.951c-.692 0-1.308.438-1.534 1.092l-.005.014c-.002.01-.004.013-.007.021l-.859 2.575-4.676 14.027a6.082 6.082 0 01-5.758 4.124h-3.219l6.91-20.728a3.04 3.04 0 012.886-2.081H477.94a3.042 3.042 0 012.885 4.004l-5.095 14.648a6.081 6.081 0 01-5.771 4.157h-3.219z"/></clipPath><linearGradient id="c" spreadMethod="pad" gradientTransform="scale(50.96065 -50.96065) rotate(19.654 162.28 -3.008)" gradientUnits="userSpaceOnUse" y2="0" x2="1" y1="0" x1="0"><stop offset="0" stop-color="#8b5ea6"/><stop offset="1" stop-color="#1fa4be"/></linearGradient></defs><g clip-path="url(#a)" transform="matrix(.35278 0 0 -.35278 -129.68 985.63)"><path d="M367.599 2729.828v20.708h.417a2.628 2.628 0 002.626-2.625v-15.041h6.744a2.628 2.628 0 002.626-2.625v-.417zM387.861 2729.828a7.05 7.05 0 00-7.042 7.042v13.666h.417a2.628 2.628 0 002.626-2.625v-11.041c0-2.205 1.794-4 4-4a4.004 4.004 0 013.998 4v13.666h.417a2.628 2.628 0 002.626-2.625v-11.041a7.05 7.05 0 00-7.042-7.042M401.524 2742.705v-10.25a2.629 2.629 0 00-2.626-2.627h-.417v20.71h.616l.128-.156 10.296-12.716v12.871h.417a2.63 2.63 0 002.626-2.626v-18.842zM427.184 2739.495v4a4.003 4.003 0 01-4 3.998 4.003 4.003 0 01-3.998-3.998v-4zm2.625-9.667a2.628 2.628 0 00-2.625 2.625v4h-7.998v-6.625h-.418a2.628 2.628 0 00-2.625 2.625v11.042c0 3.882 3.159 7.042 7.042 7.042s7.042-3.16 7.042-7.042v-13.667zM440.849 2739.549a4.006 4.006 0 014 4 4.005 4.005 0 01-4 4.002 4.005 4.005 0 01-4.001-4.001v-1.423l.002-.417v-2.161zm5.269-9.777a2.64 2.64 0 00-2.115 1.066l-4.188 5.67h-2.965v-4a2.629 2.629 0 00-2.626-2.625h-.417v13.667a7.05 7.05 0 007.042 7.042 7.05 7.05 0 007.042-7.042 7.057 7.057 0 00-4.612-6.61l4.732-6.406-.336-.248a2.603 2.603 0 00-1.557-.514M530.628 2729.474a7.048 7.048 0 00-7.041 7.041v.417h3.043v-.417a4.003 4.003 0 013.998-3.998c1.044 0 2.03.4 2.779 1.124.807.78 1.067 1.92.676 2.973-.368.995-1.214 1.626-2.262 1.69a3.612 3.612 0 01-.181.004h-2.116a5.886 5.886 0 00-3.561 1.187l-.821.751-.007.007c-1.597 1.758-1.802 4.463-.5 6.577.289.467.632.901 1.02 1.29a6.993 6.993 0 004.98 2.062 7.048 7.048 0 007.042-7.04v-.418h-3.043v.417a4.002 4.002 0 01-3.997 3.998 3.981 3.981 0 01-2.78-1.123 2.754 2.754 0 01-.675-2.974c.368-.995 1.214-1.626 2.26-1.689.06-.003.122-.004.183-.004h2.115a5.886 5.886 0 003.562-1.187l.82-.752.007-.006c1.593-1.762 1.803-4.464.499-6.578a7.003 7.003 0 00-1.02-1.29 6.992 6.992 0 00-4.978-2.062zM481.64 2729.683v18.083a2.628 2.628 0 002.627 2.625h.417v-18.083a2.629 2.629 0 00-2.625-2.625zM491.305 2742.56v-10.25a2.628 2.628 0 00-2.626-2.627h-.417v20.708h.616l.128-.154 10.296-12.717v12.871h.417a2.629 2.629 0 002.626-2.626v-18.84zM459.682 2733.15l-6.14 16.94.393.143a2.634 2.634 0 003.364-1.567l3.95-10.917 3.164 8.692 1.569 4.302 4.73-13.003 4.019 10.927a2.636 2.636 0 003.365 1.566l.393-.144-6.21-16.938-1.593-4.227-1.54 4.233-3.164 8.692-3.165-8.697-1.568-4.235zM512.965 2729.474a7.05 7.05 0 00-7.042 7.042v6.625c0 3.882 3.159 7.041 7.042 7.041s7.042-3.159 7.042-7.04v-.419h-3.043v.418a4.004 4.004 0 01-4 4 4.004 4.004 0 01-3.998-4v-6.625c0-2.205 1.794-4 3.999-4a4.006 4.006 0 013.978 3.583h-1.77a2.628 2.628 0 00-2.625 2.625v.417h7.459v-2.625a7.05 7.05 0 00-7.042-7.042" fill="#fff"/></g><g clip-path="url(#b)" transform="matrix(.35278 0 0 -.35278 -129.68 985.63)"><path d="M466.74 2793.91l6.509-18.885a3.063 3.063 0 00-.188-2.378c-.197-.377-.611-.592-1.038-.592h-3.464c-.438 0-.841.239-1.054.621a2.947 2.947 0 00-.217.485l-.008.021-.858 2.575-2.098 6.296a6.081 6.081 0 01-5.759 4.124h-3.218l4.332-12.997c.144-.432.381-.811.681-1.127h-5.862a1.21 1.21 0 00-1.054.621 2.947 2.947 0 00-.217.485c-.002.01-.005.013-.009.021l-.857 2.575-4.625 14.027a6.083 6.083 0 01-5.759 4.124h-3.219l6.859-20.728c.144-.432.383-.811.683-1.127h-5.951c-.692 0-1.308.438-1.534 1.092l-.005.014c-.002.01-.004.013-.007.021l-.859 2.575-4.676 14.027a6.082 6.082 0 01-5.758 4.124h-3.219l6.91-20.728a3.04 3.04 0 012.886-2.081H477.94a3.042 3.042 0 012.885 4.004l-5.095 14.648a6.081 6.081 0 01-5.771 4.157h-3.219z" fill="url(#c)"/></g></svg>