<svg version="1" xmlns="http://www.w3.org/2000/svg" width="1365.333" height="1365.333" viewBox="0 0 1024.000000 1024.000000"><path d="M0 512v512h1024V0H0v512zm293.5-101.1c7.6 3 15.3 7.9 20.4 13 9.4 9.4 9.5 9.8 37.7 94.6 14.6 44 27.3 81.1 28.3 82.5 4 5.6 6.1 6 36.3 6h27.7l-2.5-4.4c-1.9-3.5-64.4-191.6-64.4-194 0-.3 8.6-.6 19.1-.6 17.7 0 19.6.2 26.5 2.5 15.1 5.1 25.9 14.3 32.7 28 1.4 2.7 13.8 39.6 27.7 82 13.9 42.3 25.9 78.2 26.8 79.8.9 1.5 3.5 3.6 5.7 4.7 3.8 1.8 6.3 2 29.9 2h25.7l-2.5-4.3c-2-3.4-41.6-121.5-41.6-124 0-.4 7.5-.7 16.8-.7 19.2 0 27.4 1.4 37.2 6.2 8.4 4.1 19.6 15.1 23.7 23.3 1.7 3.3 9.4 25.3 17.3 49 8.8 26.4 15.1 43.9 16.4 45.4 3.9 4.4 7.4 5.1 24.9 5.1 15.4 0 16.6-.1 19.8-2.3 4.9-3.3 6.4-6.9 6.3-15.7-.1-7.1-1.5-11.7-29.7-93.8-16.4-47.5-29.7-86.5-29.7-86.8 0-.2 8.4-.4 18.8-.4 20.7 0 25.3.8 36.1 6.1 8.1 4 18.5 14.2 22.7 22.4 1.7 3.3 13.9 37 27 75 23.5 67.7 23.9 69.1 23.9 77 0 5.9-.5 9-2 12-2.5 5-8 10.5-13 13-3.9 2-7.4 2-209.4 2.3l-205.4.2-5.1-2.3c-5.9-2.7-10.9-7.4-13.5-12.6-1.4-2.7-59.4-177.1-63.6-190.9l-.7-2.4 20.9.4c18.9.4 21.3.6 26.8 2.7z"/></svg>